<?xml version="1.0" encoding="UTF-8"?>
<!DOCTYPE svg PUBLIC "-//W3C//DTD SVG 1.1//EN" "http://www.w3.org/Graphics/SVG/1.1/DTD/svg11.dtd">
<svg xmlns="http://www.w3.org/2000/svg" version="1.1" width="400px" height="400px" style="shape-rendering:geometricPrecision; text-rendering:geometricPrecision; image-rendering:optimizeQuality; fill-rule:evenodd; clip-rule:evenodd" xmlns:xlink="http://www.w3.org/1999/xlink">
<g><path style="opacity:0.995" fill="#ff6600" d="M 179.5,-0.5 C 192.833,-0.5 206.167,-0.5 219.5,-0.5C 304.644,11.8043 361.811,58.4709 391,139.5C 394.818,152.765 397.651,166.099 399.5,179.5C 399.5,192.833 399.5,206.167 399.5,219.5C 387.194,304.646 340.528,361.812 259.5,391C 246.235,394.818 232.901,397.651 219.5,399.5C 206.167,399.5 192.833,399.5 179.5,399.5C 94.4616,387.054 37.295,340.387 8,259.5C 4.18196,246.235 1.34862,232.901 -0.5,219.5C -0.5,206.167 -0.5,192.833 -0.5,179.5C 11.8056,94.3544 58.4723,37.1878 139.5,8C 152.765,4.18196 166.099,1.34862 179.5,-0.5 Z"/></g>
<g><path style="opacity:1" fill="#fffbf8" d="M 302.5,110.5 C 307.511,110.334 312.511,110.501 317.5,111C 318,111.5 318.5,112 319,112.5C 319.5,133.831 319.667,155.164 319.5,176.5C 320.822,176.33 321.989,176.663 323,177.5C 323.804,182.751 323.637,187.918 322.5,193C 315.833,193.667 309.167,193.667 302.5,193C 302,192.5 301.5,192 301,191.5C 300.333,165.167 300.333,138.833 301,112.5C 301.717,111.956 302.217,111.289 302.5,110.5 Z"/></g>
<g><path style="opacity:1" fill="#fffcfa" d="M 101.5,130.5 C 110.559,130.154 119.559,130.654 128.5,132C 133.967,133.316 138.8,135.816 143,139.5C 142.176,142.801 140.51,145.801 138,148.5C 137.196,149.804 136.029,150.471 134.5,150.5C 124.349,144.435 113.682,143.268 102.5,147C 91.4705,153.94 89.6372,162.774 97,173.5C 108.643,181.194 120.477,181.36 132.5,174C 133.833,173.333 135.167,173.333 136.5,174C 139.026,177.026 141.36,180.193 143.5,183.5C 138.048,189.058 131.382,192.224 123.5,193C 107.758,196.44 93.9247,192.94 82,182.5C 70.9912,166.611 72.1579,151.778 85.5,138C 90.5424,134.643 95.8757,132.143 101.5,130.5 Z"/></g>
<g><path style="opacity:1" fill="#fffcfa" d="M 170.5,130.5 C 180.292,130.024 189.958,130.857 199.5,133C 209.697,136.537 215.53,143.704 217,154.5C 219.134,167.002 215.967,177.836 207.5,187C 195.894,193.13 183.561,195.13 170.5,193C 156.959,190.793 149.126,182.96 147,169.5C 143.171,149.12 151.004,136.12 170.5,130.5 Z"/></g>
<g><path style="opacity:1" fill="#fffdfc" d="M 247.5,130.5 C 256.559,130.154 265.559,130.654 274.5,132C 285.211,135.376 291.711,142.543 294,153.5C 295.475,163.271 294.142,172.605 290,181.5C 284.468,188.35 277.301,192.183 268.5,193C 233.584,197.754 219.084,182.92 225,148.5C 229.392,138.607 236.892,132.607 247.5,130.5 Z"/></g>
<g><path style="opacity:1" fill="#ff6705" d="M 174.5,145.5 C 195.631,143.817 202.797,153.15 196,173.5C 193.9,176.467 191.066,178.3 187.5,179C 168.863,181.349 161.696,173.182 166,154.5C 167.688,150.315 170.521,147.315 174.5,145.5 Z"/></g>
<g><path style="opacity:1" fill="#ff6703" d="M 252.5,145.5 C 273.165,144.46 279.998,153.793 273,173.5C 267.289,179.117 260.455,180.95 252.5,179C 245.075,175.827 241.742,170.16 242.5,162C 242.214,154.036 245.547,148.536 252.5,145.5 Z"/></g>
<g><path style="opacity:1" fill="#fffefe" d="M 179.5,203.5 C 179.5,225.833 179.5,248.167 179.5,270.5C 180.5,270.5 181.5,270.5 182.5,270.5C 183.117,270.611 183.617,270.944 184,271.5C 184.804,276.751 184.637,281.918 183.5,287C 175.92,287.813 168.42,287.647 161,286.5C 160.333,258.5 160.333,230.5 161,202.5C 166.75,201.359 172.584,201.193 178.5,202C 179.056,202.383 179.389,202.883 179.5,203.5 Z"/></g>
<g><path style="opacity:1" fill="#fffcfb" d="M 80.5,201.5 C 86.2289,201.212 91.8955,201.546 97.5,202.5C 98.4973,209.803 98.8306,217.137 98.5,224.5C 108.063,222.55 117.73,222.05 127.5,223C 146.096,225.507 155.096,236.174 154.5,255C 155.498,272.998 147.164,283.665 129.5,287C 121.833,287.667 114.167,287.667 106.5,287C 104,286.625 101.667,285.792 99.5,284.5C 98.6143,285.325 98.281,286.325 98.5,287.5C 91.9102,287.811 85.4102,287.478 79,286.5C 78.3333,258.833 78.3333,231.167 79,203.5C 79.7172,202.956 80.2172,202.289 80.5,201.5 Z"/></g>
<g><path style="opacity:1" fill="#ff9148" d="M 179.5,203.5 C 179.855,225.891 180.855,248.224 182.5,270.5C 181.5,270.5 180.5,270.5 179.5,270.5C 179.5,248.167 179.5,225.833 179.5,203.5 Z"/></g>
<g><path style="opacity:1" fill="#fffcfa" d="M 190.5,222.5 C 196.093,222.193 201.593,222.527 207,223.5C 207.333,236.833 207.667,250.167 208,263.5C 209.583,270.048 213.75,272.715 220.5,271.5C 226.21,272.561 230.376,270.561 233,265.5C 233.333,251.5 233.667,237.5 234,223.5C 239.667,222.167 245.333,222.167 251,223.5C 251.667,236.833 251.667,250.167 251,263.5C 250.776,277.723 243.61,285.556 229.5,287C 220.342,288.093 211.342,287.426 202.5,285C 194.671,280.526 190.504,273.692 190,264.5C 189.186,250.425 189.352,236.425 190.5,222.5 Z"/></g>
<g><path style="opacity:1" fill="#fffdfb" d="M 280.5,222.5 C 288.507,222.334 296.507,222.5 304.5,223C 316.066,224.935 322.566,231.768 324,243.5C 324.499,249.491 324.666,255.491 324.5,261.5C 311.829,261.667 299.162,261.5 286.5,261C 285.167,257 285.167,253 286.5,249C 293.158,248.5 299.825,248.334 306.5,248.5C 306.24,239.258 301.407,235.258 292,236.5C 283.737,235.961 278.403,239.628 276,247.5C 272.405,267.569 280.572,276.069 300.5,273C 305.513,271.991 310.18,270.158 314.5,267.5C 319.332,270.184 321.832,274.184 322,279.5C 317.573,283.463 312.406,285.963 306.5,287C 292.32,290.191 278.987,288.191 266.5,281C 262.237,276.642 259.403,271.475 258,265.5C 257.333,258.5 257.333,251.5 258,244.5C 261.21,232.806 268.71,225.473 280.5,222.5 Z"/></g>
<g><path style="opacity:1" fill="#ff6807" d="M 111.5,237.5 C 130.517,236.024 138.017,244.691 134,263.5C 130.534,270.405 124.868,273.738 117,273.5C 109.252,273.962 103.918,270.629 101,263.5C 100.333,258.167 100.333,252.833 101,247.5C 103.106,242.557 106.606,239.224 111.5,237.5 Z"/></g>
</svg>
