<?xml version="1.0" standalone="no"?>
<!DOCTYPE svg PUBLIC "-//W3C//DTD SVG 20010904//EN"
 "http://www.w3.org/TR/2001/REC-SVG-20010904/DTD/svg10.dtd">
<svg version="1.0" xmlns="http://www.w3.org/2000/svg"
 width="840.000000pt" height="678.000000pt" viewBox="0 0 840.000000 678.000000"
 preserveAspectRatio="xMidYMid meet">

<g transform="translate(0.000000,678.000000) scale(0.100000,-0.100000)"
fill="#000000" stroke="none">
<path d="M3320 6369 c-568 -50 -1081 -292 -1471 -696 -179 -186 -303 -365
-420 -608 -307 -638 -299 -1395 20 -2028 113 -223 237 -396 414 -576 577 -588
1411 -819 2218 -616 157 40 295 92 456 172 84 41 156 73 161 71 6 -1 306 -291
668 -643 1042 -1013 960 -937 1056 -984 165 -81 322 -77 491 12 276 145 369
530 189 788 -20 29 -273 282 -562 562 -289 281 -648 629 -799 776 l-273 266
43 75 c324 569 386 1263 169 1895 -275 800 -988 1390 -1830 1515 -155 23 -391
31 -530 19z m428 -935 c189 -32 417 -130 572 -245 526 -390 712 -1074 451
-1666 -236 -538 -797 -874 -1374 -823 -763 67 -1325 727 -1265 1487 25 332
172 639 420 879 321 311 751 444 1196 368z"/>
</g>
</svg>
